<?xml version="1.0" encoding="UTF-8" standalone="no"?>
<!-- Created with Inkscape (http://www.inkscape.org/) -->

<svg
   width="210mm"
   height="297mm"
   viewBox="0 0 210 297"
   version="1.1"
   id="svg1"
   xml:space="preserve"
   inkscape:version="1.4.3 (0d15f75, 2025-12-25)"
   sodipodi:docname="logoestampasobmedia.svg"
   xmlns:inkscape="http://www.inkscape.org/namespaces/inkscape"
   xmlns:sodipodi="http://sodipodi.sourceforge.net/DTD/sodipodi-0.dtd"
   xmlns:xlink="http://www.w3.org/1999/xlink"
   xmlns="http://www.w3.org/2000/svg"
   xmlns:svg="http://www.w3.org/2000/svg"><sodipodi:namedview
     id="namedview1"
     pagecolor="#ffffff"
     bordercolor="#000000"
     borderopacity="0.25"
     inkscape:showpageshadow="2"
     inkscape:pageopacity="0.0"
     inkscape:pagecheckerboard="0"
     inkscape:deskcolor="#d1d1d1"
     inkscape:document-units="mm"
     inkscape:zoom="0.9"
     inkscape:cx="622.77778"
     inkscape:cy="602.77778"
     inkscape:window-width="1920"
     inkscape:window-height="991"
     inkscape:window-x="-9"
     inkscape:window-y="-9"
     inkscape:window-maximized="1"
     inkscape:current-layer="g39" /><defs
     id="defs1"><linearGradient
       id="linearGradient36"
       inkscape:collect="always"><stop
         style="stop-color:#000000;stop-opacity:1;"
         offset="0"
         id="stop37" /><stop
         style="stop-color:#000000;stop-opacity:0;"
         offset="1"
         id="stop38" /></linearGradient><inkscape:path-effect
       effect="fillet_chamfer"
       id="path-effect1"
       is_visible="true"
       lpeversion="1"
       nodesatellites_param="F,0,0,1,0,0,0,1 @ F,0,0,1,0,0,0,1 @ F,0,0,1,0,0,0,1 @ F,0,0,1,0,0,0,1 @ F,0,0,1,0,0,0,1 @ F,0,0,1,0,0,0,1 @ F,0,0,1,0,0,0,1 @ F,0,0,1,0,0,0,1 @ F,0,0,1,0,0,0,1 @ F,0,0,1,0,1.0668306,0,1 @ F,0,0,1,0,0.73191099,0,1"
       radius="0"
       unit="px"
       method="auto"
       mode="F"
       chamfer_steps="1"
       flexible="false"
       use_knot_distance="true"
       apply_no_radius="true"
       apply_with_radius="true"
       only_selected="false"
       hide_knots="false" /><meshgradient
       inkscape:collect="always"
       id="meshgradient12"
       gradientUnits="userSpaceOnUse"
       x="282.33163"
       y="30.306608"
       gradientTransform="translate(-208.94302,35.018383)"><meshrow
         id="meshrow12"><meshpatch
           id="meshpatch12"><stop
             path="c 21.6559,0  43.3118,0  64.9677,0"
             style="stop-color:#ffffff;stop-opacity:1"
             id="stop13" /><stop
             path="c 0,34.993  0,69.9861  0,104.979"
             style="stop-color:#000000;stop-opacity:1"
             id="stop14" /><stop
             path="c -21.6559,0  -43.3118,0  -64.9677,0"
             style="stop-color:#ffffff;stop-opacity:1"
             id="stop15" /><stop
             path="c 0,-34.993  0,-69.9861  0,-104.979"
             style="stop-color:#000000;stop-opacity:1"
             id="stop16" /></meshpatch></meshrow></meshgradient><linearGradient
       inkscape:collect="always"
       xlink:href="#linearGradient36"
       id="linearGradient38"
       x1="321.53317"
       y1="79.067841"
       x2="393.41092"
       y2="79.067841"
       gradientUnits="userSpaceOnUse"
       gradientTransform="translate(-208.94302,35.018383)" /><filter
       inkscape:collect="always"
       style="color-interpolation-filters:sRGB"
       id="filter39"
       x="-0.019043423"
       y="-0.012604904"
       width="1.0347033"
       height="1.0249898"><feGaussianBlur
         inkscape:collect="always"
         stdDeviation="0.40292408"
         id="feGaussianBlur39" /></filter><filter
       inkscape:collect="always"
       style="color-interpolation-filters:sRGB"
       id="filter40"
       x="-0.014756866"
       y="-0.01011106"
       width="1.0295137"
       height="1.0202221"><feGaussianBlur
         inkscape:collect="always"
         stdDeviation="0.35046055"
         id="feGaussianBlur40" /></filter></defs><g
     inkscape:groupmode="layer"
     id="layer3"
     inkscape:label="vetor"><g
       id="g39"
       transform="translate(-2.7236519,12.840073)"><path
         style="opacity:1;fill:#000000;stroke-width:0.264583"
         d="m 56.862993,153.27895 21.525425,-11.92867 1.524718,0.13453 -4.574155,19.41773 -0.986581,-1.16596 0.358757,-1.56956 -1.255649,0.22422 0.896892,-10.22458 -15.067795,6.36794 0.429168,-0.8798 a 0.33054683,0.33054683 43.218377 0 0 -0.460188,-0.43242 l -3.099326,1.75827 a 0.17789355,0.17789355 46.772407 0 1 -0.236784,-0.25191 z"
         id="path1"
         sodipodi:nodetypes="cccccccccccc"
         inkscape:path-effect="#path-effect1"
         inkscape:original-d="m 56.862993,153.27895 21.525425,-11.92867 1.524718,0.13453 -4.574155,19.41773 -0.986581,-1.16596 0.358757,-1.56956 -1.255649,0.22422 0.896892,-10.22458 -15.067795,6.36794 0.896891,-1.83863 -4.663841,2.64583 z"
         transform="translate(-1.8096153,1.5642862)" /><path
         id="path2"
         style="opacity:1;fill:#000000;stroke-width:0.264583;filter:url(#filter40)"
         d="m 70.511695,71.77802 -16.00988,13.72216 0.35916,0.58291 -0.13488,0.358634 0.13488,0.538469 16.81654,-9.955465 4.2602,1.928048 -2.28719,18.745108 -3.40806,-0.94155 0.22427,-7.085349 -0.44855,-7.623824 -0.0894,-1.480013 -0.53847,-0.04444 -11.56984,7.668266 -16.90646,12.466936 -1.52445,1.83865 c 0,0 -0.33519,7.5164 0.9865,7.9375 5.11396,1.62934 17.66869,3.22874 17.66869,3.22874 l 1.16582,0.40359 -3.67729,0.76223 c 0,0 -7.38929,2.25569 -11.07633,3.40806 -2.4998,0.7813 -5.28617,0.96036 -7.48895,2.37712 -0.88121,0.56676 0.0978,-1.63764 -2.10788,2.33164 -2.28621,4.11412 -3.6773,13.63276 -3.6773,13.63276 l -0.76222,3.49797 -0.3142,2.06293 0.3142,0.44855 0.13436,-0.44855 0.13435,-0.94206 0.67283,-3.22875 0.71779,-1.21078 v 0.98651 l -1.48002,6.18877 15.65073,11.03189 38.02817,-18.38648 2.82515,-15.91996 -1.52446,-2.78019 -1.07642,0.22427 -31.3464,12.15275 1.48001,-7.66827 17.62373,-5.47098 c 0,0 1.11112,-0.53942 1.43505,-1.03146 0.99319,-1.50861 1.16582,-5.29167 1.16582,-5.29167 0,0 -0.0351,-1.66339 -1.56941,-2.01796 -8.30079,-1.91821 -25.11268,-4.75372 -25.11268,-4.75372 l 18.29656,-12.556334 0.17932,8.161768 7.13031,2.555916 1.4795,-0.76222 3.2737,-7.040392 2.78071,-17.937928 z m 13.1396,52.55765 c 0.80614,-0.004 0.17897,1.21064 0.17897,1.21064 l -0.80677,2.15284 -37.35576,18.87947 -7.71323,-5.96449 3.49798,-13.63276 8.83409,-3.09387 -2.78019,13.36352 c 0,0 24.99278,-12.85494 36.14491,-12.91535 z"
         sodipodi:nodetypes="ccccccccccccccccscccsssccccccccccccccccccscsccccccccscccccccs" /><path
         style="opacity:1;fill:#d40000;stroke:url(#meshgradient12);stroke-width:2.265;stroke-dasharray:none;paint-order:normal"
         d="m 98.608145,78.665678 0.85853,-0.390239 13.970605,-11.551132 4.99508,3.199977 0.46829,0.858528 1.40487,0.390242 -3.27802,37.853356 -0.62439,0.85853 -8.74139,0.70244 -1.87315,1.01462 -1.95121,-1.32682 -0.23414,-1.32681 -0.1561,-11.395034 -8.663335,5.775564 -1.24877,-0.1561 -1.87316,-1.63901 15.999865,-13.034042 0.23414,17.482782 5.46337,-1.7951 0.3122,-29.970499 -30.672925,25.521755 20.760815,14.204764 2.1073,0.54634 27.78514,19.04375 1.17072,2.1073 0.78048,0.54634 c 0,0 -1.15465,0.25811 -0.93658,0.54634 0.72044,0.95221 -1.56096,4.91703 -1.56096,4.91703 l -19.66814,10.30236 -2.57559,-0.23414 -6.3219,1.79511 6.478,-0.46824 -27.394905,16.07792 -1.01463,-0.15609 -0.078,-1.56097 -1.09267,0.62439 -0.62439,-0.70244 -0.0781,-0.78048 -0.54634,-0.70243 -0.62438,0.1561 -0.31219,-0.62439 -0.62439,-0.31219 8.42921,-45.26796 0.93657,-2.18535 3.66827,0.93658 10.458445,7.88287 -1.17072,10.92674 12.33161,-5.22923 c 0,0 -0.23232,0.1375 0.23414,1.63902 0.28083,0.90397 -18.731545,11.00479 -18.731545,11.00479 l 2.26339,-15.29744 -5.07313,-3.43412 -5.38532,32.70219 37.307015,-20.99496 c 0,0 -35.224155,-20.34776 -48.858155,-35.66802 -1.07232,-1.20495 0,-4.838984 0,-4.838984 l 3.19998,-3.512168 h 0.39024 l 18.88766,-15.141347 -6.47799,6.79019 7.18043,-5.229228 z"
         id="path3"
         sodipodi:nodetypes="ccccccccccccccccccccccccccscccccccccccccccccccccscccccsccccccc" /><path
         style="opacity:1;fill:#000000;stroke:url(#linearGradient38);stroke-width:0.265;stroke-dasharray:none;filter:url(#filter39)"
         d="m 112.98163,154.5641 0.85853,-0.78048 9.91212,-3.19999 12.09747,-2.96583 0.15609,-37.93142 9.67798,19.12181 6.71214,-0.85853 6.86824,-23.57055 5.54142,42.14601 12.01942,3.59022 -2.80973,-11.08284 1.01462,-1.56096 -2.02925,-9.99017 0.78048,1.40487 -1.40486,-7.33653 -0.1561,6.86824 0.23414,2.88778 0.1561,1.56096 -0.70244,-0.78048 0.70244,3.35607 -0.23414,1.09268 0.93657,3.90241 v 1.09267 l 0.93658,5.07313 -3.04388,-13.03404 -5.38532,-25.52176 -3.98046,-24.429075 -0.15609,-2.419495 -9.36579,39.33628 c 0,0 -1.66705,0.99843 -2.80973,1.17072 -1.27282,0.19191 -3.90241,-0.31219 -3.90241,-0.31219 l -13.89258,-34.96558 -4.37069,41.98992 -4.83899,-3.51217 1.24877,-15.14135 0.85853,-14.126719 -7.72677,13.034049 1.01463,-12.955999 10.5365,-19.902285 2.02925,-0.156096 h 4.29265 l 1.32682,0.234145 2.34145,5.697517 -0.54634,-0.07805 9.44383,25.911998 3.12193,-12.253569 1.9512,-11.551129 2.88778,-11.395035 12.956,-2.1073 1.17073,2.497542 0.62438,-1.873157 1.09267,1.717061 -0.078,-2.029254 5.61946,-1.24877 -0.078,19.433995 0.54634,4.917037 -0.54634,-2.18535 -0.46829,3.51217 -0.93658,-5.853615 -0.46829,4.682885 0.70243,8.975549 -1.17072,0.85853 -2.57559,-13.112099 v -7.336527 l -0.62438,-4.760939 -1.17073,-0.156096 -0.70243,0.858531 -0.078,1.717058 -0.1561,2.575592 0.54634,5.46337 7.02434,37.69727 0.78048,0.62439 1.56096,6.24385 1.40487,6.39995 -0.78048,-0.23414 -0.31219,1.87315 2.41949,6.94629 0.1561,-2.65364 2.57559,10.61457 -3.90241,2.73168 -19.98034,-6.08775 -1.32682,-0.70245 -2.41949,-26.45833 -1.87316,5.93166 -10.3804,2.02925 -3.98046,-7.96091 1.24877,26.53638 -25.36566,4.91705 v -0.70244 l 2.49754,-1.09267 -1.9512,0.15609 2.49754,-1.56096 -2.88778,0.1561 z"
         id="path4"
         sodipodi:nodetypes="cccccccccccccccccccccccccccccscccccccccccccccccccccccccccccccccccccccccccccccccccccccccccccccc" /><path
         style="font-weight:bold;font-size:29.7545px;font-family:Candara;-inkscape-font-specification:'Candara, Bold';opacity:1;stroke-width:2.40216"
         d="m 64.460663,192.89171 -0.100084,2.52208 H 53.714093 q 0.162638,-3.46213 0.162638,-7.80701 0,-4.17291 -0.162638,-7.11916 h 10.158574 l -0.137616,2.51062 q -3.753168,-0.18342 -6.805744,-0.18342 0.125106,1.5935 0.125106,3.7602 2.614706,0 5.592219,-0.12611 v 2.39599 q -2.927471,-0.11464 -5.592219,-0.11464 0,2.3272 0.100084,4.35633 3.427893,0 7.306166,-0.19488 z m 13.398808,-1.54765 q 0,4.48244 -7.030934,4.48244 -2.389517,0 -4.441248,-0.52735 l 0.613018,-2.55648 q 2.02671,0.64199 3.82823,0.64199 2.00169,0 2.877429,-0.35539 0.875739,-0.35538 0.875739,-1.19226 0,-0.87126 -0.825697,-1.4674 -0.713102,-0.52734 -2.889939,-1.37567 -1.976668,-0.77956 -2.939981,-1.69668 -1.213524,-1.15787 -1.213524,-2.85455 0,-1.97182 1.588841,-3.08383 1.601351,-1.11201 4.591374,-1.11201 2.45207,0 4.115975,0.37831 l -0.462891,2.54503 q -1.688926,-0.56174 -3.653084,-0.56174 -2.952491,0 -2.952491,1.44446 0,0.76809 0.68808,1.24958 0.600507,0.41271 2.614707,1.15787 2.139306,0.79102 3.202704,1.74254 1.413692,1.27251 1.413692,3.14114 z m 14.161956,-10.85644 -0.08757,2.46476 q -2.502118,-0.17196 -4.716481,-0.17196 -0.02506,2.16671 -0.02506,4.82636 0,4.12705 0.137621,7.80701 h -3.502961 q 0.162637,-3.64556 0.162637,-7.80701 0,-2.61379 -0.05004,-4.82636 -1.763988,0 -4.841586,0.18343 l 0.100084,-2.47623 z m 15.763303,14.92617 h -4.00338 q 0,-0.75662 -1.13846,-4.28755 h -5.77988 q -1.175989,3.4736 -1.175989,4.28755 h -3.76568 q 0,-0.44709 2.914956,-7.33698 2.927476,-6.88989 2.927476,-7.58919 h 4.728997 q 0,0.65345 2.63972,7.48601 2.65224,6.8211 2.65224,7.44016 z m -5.77988,-6.47718 q -2.139302,-5.91544 -2.139302,-6.39693 h -0.200172 q 0,0.4471 -2.214372,6.39693 z m 26.52238,6.47718 h -3.64057 q 0,-1.94888 -0.26272,-6.56889 -0.26273,-4.63147 -0.27524,-5.77787 h -0.18765 q -0.12511,0.68784 -0.66306,2.54501 -0.53796,1.85718 -2.02672,5.47981 -1.47624,3.61117 -1.47624,4.32194 h -2.76483 q 0,-0.7337 -1.42621,-4.36779 -1.41369,-3.63411 -1.85156,-5.09003 -0.43787,-1.45594 -0.70059,-2.88894 h -0.18766 q -0.0125,1.433 -0.31276,6.14472 -0.28774,4.71172 -0.28774,6.20204 h -3.30279 q 0,-0.34391 0.90075,-6.88988 0.91328,-6.54597 0.91328,-8.03629 h 4.84158 q 0,1.28397 1.52629,5.66323 1.5388,4.37926 1.5388,5.60592 h 0.18766 q 0,-1.23812 1.73897,-5.61738 1.75148,-4.37927 1.75148,-5.65177 h 4.80405 q 0,2.37305 0.57548,8.47192 0.588,6.0874 0.588,6.45425 z m 15.21284,-11.01694 q 0,2.73991 -2.22687,4.04681 -2.21438,1.3069 -5.4421,1.3069 -0.58799,0 -0.8382,-0.023 0,2.15523 0.13761,5.68616 h -3.51546 q 0.16263,-3.3131 0.16263,-7.80701 0,-4.12705 -0.16263,-7.11916 h 2.17683 q 0.46289,0 1.7765,-0.0344 1.31361,-0.0344 2.27692,-0.0344 2.37701,0 4.01589,0.98591 1.63888,0.9859 1.63888,2.99211 z m -3.22772,0.63052 q 0,-2.4533 -3.553,-2.4533 -0.88825,0 -1.87658,0.17196 0.13761,2.16671 0.13761,4.90661 0.31277,0.023 0.72562,0.023 4.56635,0 4.56635,-2.64819 z m 19.26626,10.38642 h -4.00338 q 0,-0.75662 -1.13846,-4.28755 h -5.77987 q -1.176,3.4736 -1.176,4.28755 h -3.76568 q 0,-0.44709 2.91496,-7.33698 2.92747,-6.88989 2.92747,-7.58919 h 4.729 q 0,0.65345 2.63973,7.48601 2.65223,6.8211 2.65223,7.44016 z m -5.77987,-6.47718 q -2.13931,-5.91544 -2.13931,-6.39693 h -0.20017 q 0,0.4471 -2.21437,6.39693 z"
         id="text38"
         aria-label="ESTAMPA" /><path
         style="font-weight:bold;font-size:23.252px;font-family:Candara;-inkscape-font-specification:'Candara, Bold';opacity:1;stroke-width:1.36085"
         d="m 60.551469,208.99925 q 0,3.7127 -5.335153,3.7127 -1.813192,0 -3.37007,-0.43679 l 0.465165,-2.11747 q 1.537891,0.53174 2.904905,0.53174 1.518905,0 2.183425,-0.29435 0.664521,-0.29436 0.664521,-0.98752 0,-0.72165 -0.626548,-1.21541 -0.54111,-0.43679 -2.192919,-1.13945 -1.499917,-0.64569 -2.23089,-1.40531 -0.920836,-0.95903 -0.920836,-2.36435 0,-1.63321 1.20563,-2.55426 1.215123,-0.92105 3.483988,-0.92105 1.860658,0 3.123247,0.31335 l -0.351247,2.10798 q -1.281575,-0.46528 -2.772,-0.46528 -2.240385,0 -2.240385,1.19642 0,0.63618 0.522123,1.03499 0.455672,0.34184 1.98407,0.95904 1.623329,0.65518 2.430247,1.44329 1.072727,1.05399 1.072727,2.60173 z m 13.546729,-3.03851 q 0,2.91508 -1.784713,4.83314 -1.784712,1.91807 -4.414316,1.91807 -2.506192,0 -4.195974,-1.75665 -1.689781,-1.76614 -1.689781,-4.48181 0,-2.91508 1.784713,-4.83315 1.784713,-1.91807 4.414316,-1.91807 2.506192,0 4.195974,1.75665 1.689781,1.75664 1.689781,4.48182 z m -2.620111,0.27536 q 0,-1.98453 -1.015767,-3.21893 -1.015767,-1.2344 -2.506192,-1.2344 -1.386,0 -2.354302,1.24389 -0.968302,1.2439 -0.968302,3.14298 0,1.97503 1.015768,3.21893 1.02526,1.2344 2.506192,1.2344 1.386,0 2.354302,-1.2439 0.968301,-1.25339 0.968301,-3.14297 z m 14.239735,2.41182 q 0,3.77916 -6.180046,3.77916 -1.072727,0 -3.34159,-0.057 0.123411,-2.8676 0.123411,-6.46635 0,-3.45632 -0.123411,-5.89663 h 1.537891 q 0.436685,0 1.461945,-0.0285 1.034754,-0.0285 1.613837,-0.0285 4.20547,0 4.20547,2.73467 0,2.10798 -2.154948,2.79164 v 0.14243 q 1.148667,0.18041 2.003054,0.90207 0.854387,0.71215 0.854387,2.12695 z m -2.563152,0.10445 q 0,-1.88958 -3.313113,-1.88958 -0.655027,0 -1.129685,0.0475 0,1.98454 0.08544,3.65571 0.322767,0.0759 0.968302,0.0759 1.756233,0 2.57264,-0.41779 0.816418,-0.42729 0.816418,-1.47179 z m -0.693003,-5.31741 q 0,-1.69967 -2.126466,-1.69967 -0.977795,0 -1.737247,0.14244 0.104424,0.95903 0.104424,3.29489 0.36074,0.019 0.759453,0.019 2.999836,0 2.999836,-1.75665 z m 23.837303,8.93515 h -2.7625 q 0,-1.61421 -0.19936,-5.44084 -0.19936,-3.83614 -0.20885,-4.78567 h -0.1424 q -0.0949,0.56972 -0.50313,2.10797 -0.40821,1.53825 -1.53789,4.53879 -1.120197,2.99104 -1.120197,3.57975 h -2.097989 q 0,-0.6077 -1.082219,-3.61774 -1.07272,-3.01003 -1.404986,-4.21594 -0.332258,-1.20591 -0.531611,-2.39283 h -0.142403 q -0.0094,1.18692 -0.237331,5.08952 -0.218341,3.9026 -0.218341,5.13699 h -2.506186 q 0,-0.28485 0.683504,-5.70672 0.693003,-5.42186 0.693003,-6.65626 h 3.67385 q 0,1.06349 1.158166,4.69072 1.167653,3.62723 1.167653,4.64324 h 0.1424 q 0,-1.0255 1.319547,-4.65273 1.32904,-3.62724 1.32904,-4.68123 h 3.64537 q 0,1.96555 0.43668,7.01709 0.44618,5.04204 0.44618,5.34589 z m 10.6798,-2.08898 -0.0759,2.08898 h -8.07868 q 0.12342,-2.8676 0.12342,-6.46634 0,-3.45632 -0.12342,-5.89664 h 7.70845 l -0.10443,2.07949 q -2.84794,-0.15192 -5.16427,-0.15192 0.0949,1.31986 0.0949,3.11448 1.98407,0 4.24344,-0.10445 v 1.98454 q -2.2214,-0.095 -4.24344,-0.095 0,1.92756 0.0759,3.60824 2.60112,0 5.544,-0.16142 z m 12.54046,-4.51979 q 0,2.69668 -1.72776,4.7097 -1.72775,2.01302 -4.84151,2.01302 -1.40499,0 -3.8732,-0.11395 0.1234,-2.8676 0.1234,-6.46634 0,-3.45632 -0.1234,-5.89664 h 1.66129 q 0.40822,0 1.21513,-0.0285 0.80692,-0.0285 1.05374,-0.0285 3.42703,0 4.96492,1.70918 1.54739,1.70916 1.54739,4.102 z m -2.59163,0.4083 q 0,-1.82312 -1.06324,-3.06701 -1.06323,-1.25339 -3.24666,-1.25339 -0.4082,0 -1.12019,0.0855 0.0949,1.89907 0.0949,3.96907 0,2.26939 0.0949,4.5008 0.61704,0.12344 1.2341,0.12344 2.04103,0 3.01882,-1.26289 0.9873,-1.27238 0.9873,-3.09548 z m 7.37617,6.20047 h -2.68656 q 0.12341,-2.94356 0.12341,-6.46634 0,-3.46582 -0.12341,-5.89664 h 2.68656 q -0.12341,2.39284 -0.12341,5.89664 0,3.57975 0.12341,6.46634 z m 13.1765,-6.60877 q 0,2.69668 -1.72775,4.7097 -1.72776,2.01302 -4.84152,2.01302 -1.40498,0 -3.8732,-0.11395 0.12341,-2.8676 0.12341,-6.46634 0,-3.45632 -0.12341,-5.89664 h 1.6613 q 0.40821,0 1.21512,-0.0285 0.80692,-0.0285 1.05374,-0.0285 3.42703,0 4.96492,1.70918 1.54739,1.70916 1.54739,4.102 z m -2.59163,0.4083 q 0,-1.82312 -1.06324,-3.06701 -1.06323,-1.25339 -3.24666,-1.25339 -0.4082,0 -1.12018,0.0855 0.0949,1.89907 0.0949,3.96907 0,2.26939 0.0949,4.5008 0.61705,0.12344 1.2341,0.12344 2.04103,0 3.01883,-1.26289 0.98729,-1.27238 0.98729,-3.09548 z m 15.46435,6.20047 h -3.03781 q 0,-0.62669 -0.86387,-3.55126 h -4.38584 q -0.89236,2.87709 -0.89236,3.55126 h -2.85744 q 0,-0.37031 2.2119,-6.07704 2.2214,-5.70672 2.2214,-6.28594 h 3.58841 q 0,0.54124 2.00306,6.20049 2.01255,5.64974 2.01255,6.16249 z m -4.38583,-5.36488 q -1.62333,-4.89962 -1.62333,-5.29843 h -0.1519 q 0,0.37033 -1.68028,5.29843 z"
         id="text39"
         aria-label="SOB MEDIDA" /></g></g><script
     id="mesh_polyfill"
     type="text/javascript">
!function(){const t=&quot;http://www.w3.org/2000/svg&quot;,e=&quot;http://www.w3.org/1999/xlink&quot;,s=&quot;http://www.w3.org/1999/xhtml&quot;,r=2;if(document.createElementNS(t,&quot;meshgradient&quot;).x)return;const n=(t,e,s,r)=&gt;{let n=new x(.5*(e.x+s.x),.5*(e.y+s.y)),o=new x(.5*(t.x+e.x),.5*(t.y+e.y)),i=new x(.5*(s.x+r.x),.5*(s.y+r.y)),a=new x(.5*(n.x+o.x),.5*(n.y+o.y)),h=new x(.5*(n.x+i.x),.5*(n.y+i.y)),l=new x(.5*(a.x+h.x),.5*(a.y+h.y));return[[t,o,a,l],[l,h,i,r]]},o=t=&gt;{let e=t[0].distSquared(t[1]),s=t[2].distSquared(t[3]),r=.25*t[0].distSquared(t[2]),n=.25*t[1].distSquared(t[3]),o=e&gt;s?e:s,i=r&gt;n?r:n;return 18*(o&gt;i?o:i)},i=(t,e)=&gt;Math.sqrt(t.distSquared(e)),a=(t,e)=&gt;t.scale(2/3).add(e.scale(1/3)),h=t=&gt;{let e,s,r,n,o,i,a,h=new g;return t.match(/(\w+\(\s*[^)]+\))+/g).forEach(t=&gt;{let l=t.match(/[\w.-]+/g),d=l.shift();switch(d){case&quot;translate&quot;:2===l.length?e=new g(1,0,0,1,l[0],l[1]):(console.error(&quot;mesh.js: translate does not have 2 arguments!&quot;),e=new g(1,0,0,1,0,0)),h=h.append(e);break;case&quot;scale&quot;:1===l.length?s=new g(l[0],0,0,l[0],0,0):2===l.length?s=new g(l[0],0,0,l[1],0,0):(console.error(&quot;mesh.js: scale does not have 1 or 2 arguments!&quot;),s=new g(1,0,0,1,0,0)),h=h.append(s);break;case&quot;rotate&quot;:if(3===l.length&amp;&amp;(e=new g(1,0,0,1,l[1],l[2]),h=h.append(e)),l[0]){r=l[0]*Math.PI/180;let t=Math.cos(r),e=Math.sin(r);Math.abs(t)&lt;1e-16&amp;&amp;(t=0),Math.abs(e)&lt;1e-16&amp;&amp;(e=0),a=new g(t,e,-e,t,0,0),h=h.append(a)}else console.error(&quot;math.js: No argument to rotate transform!&quot;);3===l.length&amp;&amp;(e=new g(1,0,0,1,-l[1],-l[2]),h=h.append(e));break;case&quot;skewX&quot;:l[0]?(r=l[0]*Math.PI/180,n=Math.tan(r),o=new g(1,0,n,1,0,0),h=h.append(o)):console.error(&quot;math.js: No argument to skewX transform!&quot;);break;case&quot;skewY&quot;:l[0]?(r=l[0]*Math.PI/180,n=Math.tan(r),i=new g(1,n,0,1,0,0),h=h.append(i)):console.error(&quot;math.js: No argument to skewY transform!&quot;);break;case&quot;matrix&quot;:6===l.length?h=h.append(new g(...l)):console.error(&quot;math.js: Incorrect number of arguments for matrix!&quot;);break;default:console.error(&quot;mesh.js: Unhandled transform type: &quot;+d)}}),h},l=t=&gt;{let e=[],s=t.split(/[ ,]+/);for(let t=0,r=s.length-1;t&lt;r;t+=2)e.push(new x(parseFloat(s[t]),parseFloat(s[t+1])));return e},d=(t,e)=&gt;{for(let s in e)t.setAttribute(s,e[s])},c=(t,e,s,r,n)=&gt;{let o,i,a=[0,0,0,0];for(let h=0;h&lt;3;++h)e[h]&lt;t[h]&amp;&amp;e[h]&lt;s[h]||t[h]&lt;e[h]&amp;&amp;s[h]&lt;e[h]?a[h]=0:(a[h]=.5*((e[h]-t[h])/r+(s[h]-e[h])/n),o=Math.abs(3*(e[h]-t[h])/r),i=Math.abs(3*(s[h]-e[h])/n),a[h]&gt;o?a[h]=o:a[h]&gt;i&amp;&amp;(a[h]=i));return a},u=[[1,0,0,0,0,0,0,0,0,0,0,0,0,0,0,0],[0,0,0,0,1,0,0,0,0,0,0,0,0,0,0,0],[-3,3,0,0,-2,-1,0,0,0,0,0,0,0,0,0,0],[2,-2,0,0,1,1,0,0,0,0,0,0,0,0,0,0],[0,0,0,0,0,0,0,0,1,0,0,0,0,0,0,0],[0,0,0,0,0,0,0,0,0,0,0,0,1,0,0,0],[0,0,0,0,0,0,0,0,-3,3,0,0,-2,-1,0,0],[0,0,0,0,0,0,0,0,2,-2,0,0,1,1,0,0],[-3,0,3,0,0,0,0,0,-2,0,-1,0,0,0,0,0],[0,0,0,0,-3,0,3,0,0,0,0,0,-2,0,-1,0],[9,-9,-9,9,6,3,-6,-3,6,-6,3,-3,4,2,2,1],[-6,6,6,-6,-3,-3,3,3,-4,4,-2,2,-2,-2,-1,-1],[2,0,-2,0,0,0,0,0,1,0,1,0,0,0,0,0],[0,0,0,0,2,0,-2,0,0,0,0,0,1,0,1,0],[-6,6,6,-6,-4,-2,4,2,-3,3,-3,3,-2,-1,-2,-1],[4,-4,-4,4,2,2,-2,-2,2,-2,2,-2,1,1,1,1]],f=t=&gt;{let e=[];for(let s=0;s&lt;16;++s){e[s]=0;for(let r=0;r&lt;16;++r)e[s]+=u[s][r]*t[r]}return e},p=(t,e,s)=&gt;{const r=e*e,n=s*s,o=e*e*e,i=s*s*s;return t[0]+t[1]*e+t[2]*r+t[3]*o+t[4]*s+t[5]*s*e+t[6]*s*r+t[7]*s*o+t[8]*n+t[9]*n*e+t[10]*n*r+t[11]*n*o+t[12]*i+t[13]*i*e+t[14]*i*r+t[15]*i*o},y=t=&gt;{let e=[],s=[],r=[];for(let s=0;s&lt;4;++s)e[s]=[],e[s][0]=n(t[0][s],t[1][s],t[2][s],t[3][s]),e[s][1]=[],e[s][1].push(...n(...e[s][0][0])),e[s][1].push(...n(...e[s][0][1])),e[s][2]=[],e[s][2].push(...n(...e[s][1][0])),e[s][2].push(...n(...e[s][1][1])),e[s][2].push(...n(...e[s][1][2])),e[s][2].push(...n(...e[s][1][3]));for(let t=0;t&lt;8;++t){s[t]=[];for(let r=0;r&lt;4;++r)s[t][r]=[],s[t][r][0]=n(e[0][2][t][r],e[1][2][t][r],e[2][2][t][r],e[3][2][t][r]),s[t][r][1]=[],s[t][r][1].push(...n(...s[t][r][0][0])),s[t][r][1].push(...n(...s[t][r][0][1])),s[t][r][2]=[],s[t][r][2].push(...n(...s[t][r][1][0])),s[t][r][2].push(...n(...s[t][r][1][1])),s[t][r][2].push(...n(...s[t][r][1][2])),s[t][r][2].push(...n(...s[t][r][1][3]))}for(let t=0;t&lt;8;++t){r[t]=[];for(let e=0;e&lt;8;++e)r[t][e]=[],r[t][e][0]=s[t][0][2][e],r[t][e][1]=s[t][1][2][e],r[t][e][2]=s[t][2][2][e],r[t][e][3]=s[t][3][2][e]}return r};class x{constructor(t,e){this.x=t||0,this.y=e||0}toString(){return`(x=${this.x}, y=${this.y})`}clone(){return new x(this.x,this.y)}add(t){return new x(this.x+t.x,this.y+t.y)}scale(t){return void 0===t.x?new x(this.x*t,this.y*t):new x(this.x*t.x,this.y*t.y)}distSquared(t){let e=this.x-t.x,s=this.y-t.y;return e*e+s*s}transform(t){let e=this.x*t.a+this.y*t.c+t.e,s=this.x*t.b+this.y*t.d+t.f;return new x(e,s)}}class g{constructor(t,e,s,r,n,o){void 0===t?(this.a=1,this.b=0,this.c=0,this.d=1,this.e=0,this.f=0):(this.a=t,this.b=e,this.c=s,this.d=r,this.e=n,this.f=o)}toString(){return`affine: ${this.a} ${this.c} ${this.e} \n       ${this.b} ${this.d} ${this.f}`}append(t){t instanceof g||console.error(&quot;mesh.js: argument to Affine.append is not affine!&quot;);let e=this.a*t.a+this.c*t.b,s=this.b*t.a+this.d*t.b,r=this.a*t.c+this.c*t.d,n=this.b*t.c+this.d*t.d,o=this.a*t.e+this.c*t.f+this.e,i=this.b*t.e+this.d*t.f+this.f;return new g(e,s,r,n,o,i)}}class w{constructor(t,e){this.nodes=t,this.colors=e}paintCurve(t,e){if(o(this.nodes)&gt;r){const s=n(...this.nodes);let r=[[],[]],o=[[],[]];for(let t=0;t&lt;4;++t)r[0][t]=this.colors[0][t],r[1][t]=(this.colors[0][t]+this.colors[1][t])/2,o[0][t]=r[1][t],o[1][t]=this.colors[1][t];let i=new w(s[0],r),a=new w(s[1],o);i.paintCurve(t,e),a.paintCurve(t,e)}else{let s=Math.round(this.nodes[0].x);if(s&gt;=0&amp;&amp;s&lt;e){let r=4*(~~this.nodes[0].y*e+s);t[r]=Math.round(this.colors[0][0]),t[r+1]=Math.round(this.colors[0][1]),t[r+2]=Math.round(this.colors[0][2]),t[r+3]=Math.round(this.colors[0][3])}}}}class m{constructor(t,e){this.nodes=t,this.colors=e}split(){let t=[[],[],[],[]],e=[[],[],[],[]],s=[[[],[]],[[],[]]],r=[[[],[]],[[],[]]];for(let s=0;s&lt;4;++s){const r=n(this.nodes[0][s],this.nodes[1][s],this.nodes[2][s],this.nodes[3][s]);t[0][s]=r[0][0],t[1][s]=r[0][1],t[2][s]=r[0][2],t[3][s]=r[0][3],e[0][s]=r[1][0],e[1][s]=r[1][1],e[2][s]=r[1][2],e[3][s]=r[1][3]}for(let t=0;t&lt;4;++t)s[0][0][t]=this.colors[0][0][t],s[0][1][t]=this.colors[0][1][t],s[1][0][t]=(this.colors[0][0][t]+this.colors[1][0][t])/2,s[1][1][t]=(this.colors[0][1][t]+this.colors[1][1][t])/2,r[0][0][t]=s[1][0][t],r[0][1][t]=s[1][1][t],r[1][0][t]=this.colors[1][0][t],r[1][1][t]=this.colors[1][1][t];return[new m(t,s),new m(e,r)]}paint(t,e){let s,n=!1;for(let t=0;t&lt;4;++t)if((s=o([this.nodes[0][t],this.nodes[1][t],this.nodes[2][t],this.nodes[3][t]]))&gt;r){n=!0;break}if(n){let s=this.split();s[0].paint(t,e),s[1].paint(t,e)}else{new w([...this.nodes[0]],[...this.colors[0]]).paintCurve(t,e)}}}class b{constructor(t){this.readMesh(t),this.type=t.getAttribute(&quot;type&quot;)||&quot;bilinear&quot;}readMesh(t){let e=[[]],s=[[]],r=Number(t.getAttribute(&quot;x&quot;)),n=Number(t.getAttribute(&quot;y&quot;));e[0][0]=new x(r,n);let o=t.children;for(let t=0,r=o.length;t&lt;r;++t){e[3*t+1]=[],e[3*t+2]=[],e[3*t+3]=[],s[t+1]=[];let r=o[t].children;for(let n=0,o=r.length;n&lt;o;++n){let o=r[n].children;for(let r=0,i=o.length;r&lt;i;++r){let i=r;0!==t&amp;&amp;++i;let h,d=o[r].getAttribute(&quot;path&quot;),c=&quot;l&quot;;null!=d&amp;&amp;(c=(h=d.match(/\s*([lLcC])\s*(.*)/))[1]);let u=l(h[2]);switch(c){case&quot;l&quot;:0===i?(e[3*t][3*n+3]=u[0].add(e[3*t][3*n]),e[3*t][3*n+1]=a(e[3*t][3*n],e[3*t][3*n+3]),e[3*t][3*n+2]=a(e[3*t][3*n+3],e[3*t][3*n])):1===i?(e[3*t+3][3*n+3]=u[0].add(e[3*t][3*n+3]),e[3*t+1][3*n+3]=a(e[3*t][3*n+3],e[3*t+3][3*n+3]),e[3*t+2][3*n+3]=a(e[3*t+3][3*n+3],e[3*t][3*n+3])):2===i?(0===n&amp;&amp;(e[3*t+3][3*n+0]=u[0].add(e[3*t+3][3*n+3])),e[3*t+3][3*n+1]=a(e[3*t+3][3*n],e[3*t+3][3*n+3]),e[3*t+3][3*n+2]=a(e[3*t+3][3*n+3],e[3*t+3][3*n])):(e[3*t+1][3*n]=a(e[3*t][3*n],e[3*t+3][3*n]),e[3*t+2][3*n]=a(e[3*t+3][3*n],e[3*t][3*n]));break;case&quot;L&quot;:0===i?(e[3*t][3*n+3]=u[0],e[3*t][3*n+1]=a(e[3*t][3*n],e[3*t][3*n+3]),e[3*t][3*n+2]=a(e[3*t][3*n+3],e[3*t][3*n])):1===i?(e[3*t+3][3*n+3]=u[0],e[3*t+1][3*n+3]=a(e[3*t][3*n+3],e[3*t+3][3*n+3]),e[3*t+2][3*n+3]=a(e[3*t+3][3*n+3],e[3*t][3*n+3])):2===i?(0===n&amp;&amp;(e[3*t+3][3*n+0]=u[0]),e[3*t+3][3*n+1]=a(e[3*t+3][3*n],e[3*t+3][3*n+3]),e[3*t+3][3*n+2]=a(e[3*t+3][3*n+3],e[3*t+3][3*n])):(e[3*t+1][3*n]=a(e[3*t][3*n],e[3*t+3][3*n]),e[3*t+2][3*n]=a(e[3*t+3][3*n],e[3*t][3*n]));break;case&quot;c&quot;:0===i?(e[3*t][3*n+1]=u[0].add(e[3*t][3*n]),e[3*t][3*n+2]=u[1].add(e[3*t][3*n]),e[3*t][3*n+3]=u[2].add(e[3*t][3*n])):1===i?(e[3*t+1][3*n+3]=u[0].add(e[3*t][3*n+3]),e[3*t+2][3*n+3]=u[1].add(e[3*t][3*n+3]),e[3*t+3][3*n+3]=u[2].add(e[3*t][3*n+3])):2===i?(e[3*t+3][3*n+2]=u[0].add(e[3*t+3][3*n+3]),e[3*t+3][3*n+1]=u[1].add(e[3*t+3][3*n+3]),0===n&amp;&amp;(e[3*t+3][3*n+0]=u[2].add(e[3*t+3][3*n+3]))):(e[3*t+2][3*n]=u[0].add(e[3*t+3][3*n]),e[3*t+1][3*n]=u[1].add(e[3*t+3][3*n]));break;case&quot;C&quot;:0===i?(e[3*t][3*n+1]=u[0],e[3*t][3*n+2]=u[1],e[3*t][3*n+3]=u[2]):1===i?(e[3*t+1][3*n+3]=u[0],e[3*t+2][3*n+3]=u[1],e[3*t+3][3*n+3]=u[2]):2===i?(e[3*t+3][3*n+2]=u[0],e[3*t+3][3*n+1]=u[1],0===n&amp;&amp;(e[3*t+3][3*n+0]=u[2])):(e[3*t+2][3*n]=u[0],e[3*t+1][3*n]=u[1]);break;default:console.error(&quot;mesh.js: &quot;+c+&quot; invalid path type.&quot;)}if(0===t&amp;&amp;0===n||r&gt;0){let e=window.getComputedStyle(o[r]).stopColor.match(/^rgb\s*\(\s*(\d+)\s*,\s*(\d+)\s*,\s*(\d+)\s*\)$/i),a=window.getComputedStyle(o[r]).stopOpacity,h=255;a&amp;&amp;(h=Math.floor(255*a)),e&amp;&amp;(0===i?(s[t][n]=[],s[t][n][0]=Math.floor(e[1]),s[t][n][1]=Math.floor(e[2]),s[t][n][2]=Math.floor(e[3]),s[t][n][3]=h):1===i?(s[t][n+1]=[],s[t][n+1][0]=Math.floor(e[1]),s[t][n+1][1]=Math.floor(e[2]),s[t][n+1][2]=Math.floor(e[3]),s[t][n+1][3]=h):2===i?(s[t+1][n+1]=[],s[t+1][n+1][0]=Math.floor(e[1]),s[t+1][n+1][1]=Math.floor(e[2]),s[t+1][n+1][2]=Math.floor(e[3]),s[t+1][n+1][3]=h):3===i&amp;&amp;(s[t+1][n]=[],s[t+1][n][0]=Math.floor(e[1]),s[t+1][n][1]=Math.floor(e[2]),s[t+1][n][2]=Math.floor(e[3]),s[t+1][n][3]=h))}}e[3*t+1][3*n+1]=new x,e[3*t+1][3*n+2]=new x,e[3*t+2][3*n+1]=new x,e[3*t+2][3*n+2]=new x,e[3*t+1][3*n+1].x=(-4*e[3*t][3*n].x+6*(e[3*t][3*n+1].x+e[3*t+1][3*n].x)+-2*(e[3*t][3*n+3].x+e[3*t+3][3*n].x)+3*(e[3*t+3][3*n+1].x+e[3*t+1][3*n+3].x)+-1*e[3*t+3][3*n+3].x)/9,e[3*t+1][3*n+2].x=(-4*e[3*t][3*n+3].x+6*(e[3*t][3*n+2].x+e[3*t+1][3*n+3].x)+-2*(e[3*t][3*n].x+e[3*t+3][3*n+3].x)+3*(e[3*t+3][3*n+2].x+e[3*t+1][3*n].x)+-1*e[3*t+3][3*n].x)/9,e[3*t+2][3*n+1].x=(-4*e[3*t+3][3*n].x+6*(e[3*t+3][3*n+1].x+e[3*t+2][3*n].x)+-2*(e[3*t+3][3*n+3].x+e[3*t][3*n].x)+3*(e[3*t][3*n+1].x+e[3*t+2][3*n+3].x)+-1*e[3*t][3*n+3].x)/9,e[3*t+2][3*n+2].x=(-4*e[3*t+3][3*n+3].x+6*(e[3*t+3][3*n+2].x+e[3*t+2][3*n+3].x)+-2*(e[3*t+3][3*n].x+e[3*t][3*n+3].x)+3*(e[3*t][3*n+2].x+e[3*t+2][3*n].x)+-1*e[3*t][3*n].x)/9,e[3*t+1][3*n+1].y=(-4*e[3*t][3*n].y+6*(e[3*t][3*n+1].y+e[3*t+1][3*n].y)+-2*(e[3*t][3*n+3].y+e[3*t+3][3*n].y)+3*(e[3*t+3][3*n+1].y+e[3*t+1][3*n+3].y)+-1*e[3*t+3][3*n+3].y)/9,e[3*t+1][3*n+2].y=(-4*e[3*t][3*n+3].y+6*(e[3*t][3*n+2].y+e[3*t+1][3*n+3].y)+-2*(e[3*t][3*n].y+e[3*t+3][3*n+3].y)+3*(e[3*t+3][3*n+2].y+e[3*t+1][3*n].y)+-1*e[3*t+3][3*n].y)/9,e[3*t+2][3*n+1].y=(-4*e[3*t+3][3*n].y+6*(e[3*t+3][3*n+1].y+e[3*t+2][3*n].y)+-2*(e[3*t+3][3*n+3].y+e[3*t][3*n].y)+3*(e[3*t][3*n+1].y+e[3*t+2][3*n+3].y)+-1*e[3*t][3*n+3].y)/9,e[3*t+2][3*n+2].y=(-4*e[3*t+3][3*n+3].y+6*(e[3*t+3][3*n+2].y+e[3*t+2][3*n+3].y)+-2*(e[3*t+3][3*n].y+e[3*t][3*n+3].y)+3*(e[3*t][3*n+2].y+e[3*t+2][3*n].y)+-1*e[3*t][3*n].y)/9}}this.nodes=e,this.colors=s}paintMesh(t,e){let s=(this.nodes.length-1)/3,r=(this.nodes[0].length-1)/3;if(&quot;bilinear&quot;===this.type||s&lt;2||r&lt;2){let n;for(let o=0;o&lt;s;++o)for(let s=0;s&lt;r;++s){let r=[];for(let t=3*o,e=3*o+4;t&lt;e;++t)r.push(this.nodes[t].slice(3*s,3*s+4));let i=[];i.push(this.colors[o].slice(s,s+2)),i.push(this.colors[o+1].slice(s,s+2)),(n=new m(r,i)).paint(t,e)}}else{let n,o,a,h,l,d,u;const x=s,g=r;s++,r++;let w=new Array(s);for(let t=0;t&lt;s;++t){w[t]=new Array(r);for(let e=0;e&lt;r;++e)w[t][e]=[],w[t][e][0]=this.nodes[3*t][3*e],w[t][e][1]=this.colors[t][e]}for(let t=0;t&lt;s;++t)for(let e=0;e&lt;r;++e)0!==t&amp;&amp;t!==x&amp;&amp;(n=i(w[t-1][e][0],w[t][e][0]),o=i(w[t+1][e][0],w[t][e][0]),w[t][e][2]=c(w[t-1][e][1],w[t][e][1],w[t+1][e][1],n,o)),0!==e&amp;&amp;e!==g&amp;&amp;(n=i(w[t][e-1][0],w[t][e][0]),o=i(w[t][e+1][0],w[t][e][0]),w[t][e][3]=c(w[t][e-1][1],w[t][e][1],w[t][e+1][1],n,o));for(let t=0;t&lt;r;++t){w[0][t][2]=[],w[x][t][2]=[];for(let e=0;e&lt;4;++e)n=i(w[1][t][0],w[0][t][0]),o=i(w[x][t][0],w[x-1][t][0]),w[0][t][2][e]=n&gt;0?2*(w[1][t][1][e]-w[0][t][1][e])/n-w[1][t][2][e]:0,w[x][t][2][e]=o&gt;0?2*(w[x][t][1][e]-w[x-1][t][1][e])/o-w[x-1][t][2][e]:0}for(let t=0;t&lt;s;++t){w[t][0][3]=[],w[t][g][3]=[];for(let e=0;e&lt;4;++e)n=i(w[t][1][0],w[t][0][0]),o=i(w[t][g][0],w[t][g-1][0]),w[t][0][3][e]=n&gt;0?2*(w[t][1][1][e]-w[t][0][1][e])/n-w[t][1][3][e]:0,w[t][g][3][e]=o&gt;0?2*(w[t][g][1][e]-w[t][g-1][1][e])/o-w[t][g-1][3][e]:0}for(let s=0;s&lt;x;++s)for(let r=0;r&lt;g;++r){let n=i(w[s][r][0],w[s+1][r][0]),o=i(w[s][r+1][0],w[s+1][r+1][0]),c=i(w[s][r][0],w[s][r+1][0]),x=i(w[s+1][r][0],w[s+1][r+1][0]),g=[[],[],[],[]];for(let t=0;t&lt;4;++t){(d=[])[0]=w[s][r][1][t],d[1]=w[s+1][r][1][t],d[2]=w[s][r+1][1][t],d[3]=w[s+1][r+1][1][t],d[4]=w[s][r][2][t]*n,d[5]=w[s+1][r][2][t]*n,d[6]=w[s][r+1][2][t]*o,d[7]=w[s+1][r+1][2][t]*o,d[8]=w[s][r][3][t]*c,d[9]=w[s+1][r][3][t]*x,d[10]=w[s][r+1][3][t]*c,d[11]=w[s+1][r+1][3][t]*x,d[12]=0,d[13]=0,d[14]=0,d[15]=0,u=f(d);for(let e=0;e&lt;9;++e){g[t][e]=[];for(let s=0;s&lt;9;++s)g[t][e][s]=p(u,e/8,s/8),g[t][e][s]&gt;255?g[t][e][s]=255:g[t][e][s]&lt;0&amp;&amp;(g[t][e][s]=0)}}h=[];for(let t=3*s,e=3*s+4;t&lt;e;++t)h.push(this.nodes[t].slice(3*r,3*r+4));l=y(h);for(let s=0;s&lt;8;++s)for(let r=0;r&lt;8;++r)(a=new m(l[s][r],[[[g[0][s][r],g[1][s][r],g[2][s][r],g[3][s][r]],[g[0][s][r+1],g[1][s][r+1],g[2][s][r+1],g[3][s][r+1]]],[[g[0][s+1][r],g[1][s+1][r],g[2][s+1][r],g[3][s+1][r]],[g[0][s+1][r+1],g[1][s+1][r+1],g[2][s+1][r+1],g[3][s+1][r+1]]]])).paint(t,e)}}}transform(t){if(t instanceof x)for(let e=0,s=this.nodes.length;e&lt;s;++e)for(let s=0,r=this.nodes[0].length;s&lt;r;++s)this.nodes[e][s]=this.nodes[e][s].add(t);else if(t instanceof g)for(let e=0,s=this.nodes.length;e&lt;s;++e)for(let s=0,r=this.nodes[0].length;s&lt;r;++s)this.nodes[e][s]=this.nodes[e][s].transform(t)}scale(t){for(let e=0,s=this.nodes.length;e&lt;s;++e)for(let s=0,r=this.nodes[0].length;s&lt;r;++s)this.nodes[e][s]=this.nodes[e][s].scale(t)}}document.querySelectorAll(&quot;rect,circle,ellipse,path,text&quot;).forEach((r,n)=&gt;{let o=r.getAttribute(&quot;id&quot;);o||(o=&quot;patchjs_shape&quot;+n,r.setAttribute(&quot;id&quot;,o));const i=r.style.fill.match(/^url\(\s*&quot;?\s*#([^\s&quot;]+)&quot;?\s*\)/),a=r.style.stroke.match(/^url\(\s*&quot;?\s*#([^\s&quot;]+)&quot;?\s*\)/);if(i&amp;&amp;i[1]){const a=document.getElementById(i[1]);if(a&amp;&amp;&quot;meshgradient&quot;===a.nodeName){const i=r.getBBox();let l=document.createElementNS(s,&quot;canvas&quot;);d(l,{width:i.width,height:i.height});const c=l.getContext(&quot;2d&quot;);let u=c.createImageData(i.width,i.height);const f=new b(a);&quot;objectBoundingBox&quot;===a.getAttribute(&quot;gradientUnits&quot;)&amp;&amp;f.scale(new x(i.width,i.height));const p=a.getAttribute(&quot;gradientTransform&quot;);null!=p&amp;&amp;f.transform(h(p)),&quot;userSpaceOnUse&quot;===a.getAttribute(&quot;gradientUnits&quot;)&amp;&amp;f.transform(new x(-i.x,-i.y)),f.paintMesh(u.data,l.width),c.putImageData(u,0,0);const y=document.createElementNS(t,&quot;image&quot;);d(y,{width:i.width,height:i.height,x:i.x,y:i.y});let g=l.toDataURL();y.setAttributeNS(e,&quot;xlink:href&quot;,g),r.parentNode.insertBefore(y,r),r.style.fill=&quot;none&quot;;const w=document.createElementNS(t,&quot;use&quot;);w.setAttributeNS(e,&quot;xlink:href&quot;,&quot;#&quot;+o);const m=&quot;patchjs_clip&quot;+n,M=document.createElementNS(t,&quot;clipPath&quot;);M.setAttribute(&quot;id&quot;,m),M.appendChild(w),r.parentElement.insertBefore(M,r),y.setAttribute(&quot;clip-path&quot;,&quot;url(#&quot;+m+&quot;)&quot;),u=null,l=null,g=null}}if(a&amp;&amp;a[1]){const o=document.getElementById(a[1]);if(o&amp;&amp;&quot;meshgradient&quot;===o.nodeName){const i=parseFloat(r.style.strokeWidth.slice(0,-2))*(parseFloat(r.style.strokeMiterlimit)||parseFloat(r.getAttribute(&quot;stroke-miterlimit&quot;))||1),a=r.getBBox(),l=Math.trunc(a.width+i),c=Math.trunc(a.height+i),u=Math.trunc(a.x-i/2),f=Math.trunc(a.y-i/2);let p=document.createElementNS(s,&quot;canvas&quot;);d(p,{width:l,height:c});const y=p.getContext(&quot;2d&quot;);let g=y.createImageData(l,c);const w=new b(o);&quot;objectBoundingBox&quot;===o.getAttribute(&quot;gradientUnits&quot;)&amp;&amp;w.scale(new x(l,c));const m=o.getAttribute(&quot;gradientTransform&quot;);null!=m&amp;&amp;w.transform(h(m)),&quot;userSpaceOnUse&quot;===o.getAttribute(&quot;gradientUnits&quot;)&amp;&amp;w.transform(new x(-u,-f)),w.paintMesh(g.data,p.width),y.putImageData(g,0,0);const M=document.createElementNS(t,&quot;image&quot;);d(M,{width:l,height:c,x:0,y:0});let S=p.toDataURL();M.setAttributeNS(e,&quot;xlink:href&quot;,S);const k=&quot;pattern_clip&quot;+n,A=document.createElementNS(t,&quot;pattern&quot;);d(A,{id:k,patternUnits:&quot;userSpaceOnUse&quot;,width:l,height:c,x:u,y:f}),A.appendChild(M),o.parentNode.appendChild(A),r.style.stroke=&quot;url(#&quot;+k+&quot;)&quot;,g=null,p=null,S=null}}})}();
</script></svg>
