<?xml version="1.0" encoding="UTF-8" standalone="no"?><!DOCTYPE svg PUBLIC "-//W3C//DTD SVG 1.1//EN" "http://www.w3.org/Graphics/SVG/1.1/DTD/svg11.dtd"><svg width="100%" height="100%" viewBox="0 0 1000 1000" version="1.1" xmlns="http://www.w3.org/2000/svg" xmlns:xlink="http://www.w3.org/1999/xlink" xml:space="preserve" xmlns:serif="http://www.serif.com/" style="fill-rule:evenodd;clip-rule:evenodd;stroke-linejoin:round;stroke-miterlimit:2;"><rect id="Prancheta1" x="0" y="0" width="1000" height="1000" style="fill:none;"/><g id="Prancheta11" serif:id="Prancheta1"><g><g><path d="M480.72,432.117l0,-129.06l-46.421,0l92.368,-60.342l-0,149.479l-45.947,39.923Z" style="fill:#ebebeb;"/><path d="M609.715,358.715l-77.048,0l0,-47.504l88.225,0l-11.178,47.504Z" style="fill:#2a8bd4;"/><path d="M625.014,290.715l-92.346,0l0,-47.504l105.743,0l-13.397,47.504Z" style="fill:#2a8bd4;"/><g transform="matrix(144.839572,0,0,144.839572,770.941692,535.795874)"></g><text x="295.97px" y="535.796px" style="font-family:'Arial-BoldMT', 'Arial', sans-serif;font-weight:700;font-size:144.84px;fill:url(#_Linear1);">França</text><g transform="matrix(1.076429,0,0,1.076429,-110.211174,-204.674214)"><text x="386.651px" y="751.825px" style="font-family:'ArialMT', 'Arial', sans-serif;font-size:50px;fill:#ebebeb;">W<tspan x="436.344px 472.193px 508.043px 524.435px " y="751.825px 751.825px 751.825px 751.825px ">EB &amp;</tspan></text><g transform="matrix(50,0,0,50,817.344842,751.824818)"></g><text x="576.676px" y="751.825px" style="font-family:'ArialMT', 'Arial', sans-serif;font-size:50px;fill:#2a8bd4;">C<tspan x="615.284px 653.893px 670.284px 702.423px 735.465px 751.857px 783.995px " y="751.825px 751.825px 751.825px 751.825px 751.825px 751.825px 751.825px ">RIATIVA</tspan></text></g></g></g></g><defs><linearGradient id="_Linear1" x1="0" y1="0" x2="1" y2="0" gradientUnits="userSpaceOnUse" gradientTransform="matrix(196.164476,-33.001269,33.001269,196.164476,306.648826,465.118035)"><stop offset="0" style="stop-color:#2a8bd4;stop-opacity:1"/><stop offset="1" style="stop-color:#ebebeb;stop-opacity:1"/></linearGradient></defs></svg>